<mxfile host="app.diagrams.net" modified="2022-04-02T05:59:41.243Z" agent="5.0 (Windows NT 10.0; Win64; x64) AppleWebKit/537.36 (KHTML, like Gecko) Chrome/99.0.4844.84 Safari/537.36" etag="Xt8HpqjsFx0vLIQLYy1H" version="17.2.2" type="github">
  <diagram id="knWczhrapMIirLDeCAfI" name="Page-1">
    <mxGraphModel dx="782" dy="548" grid="1" gridSize="10" guides="1" tooltips="1" connect="1" arrows="1" fold="1" page="1" pageScale="1" pageWidth="827" pageHeight="1169" math="0" shadow="0">
      <root>
        <mxCell id="0" />
        <mxCell id="1" parent="0" />
        <mxCell id="IYxswr12Z-hXtfokX92H-4" value="" style="shape=image;imageAspect=0;aspect=fixed;verticalLabelPosition=bottom;verticalAlign=top;image=https://sicp.sourceacademy.org/img_original/ch2-Z-G-6.svg;perimeterSpacing=0;imageBackground=none;imageBorder=none;" vertex="1" parent="1">
          <mxGeometry x="180" y="360" width="399.46" height="310" as="geometry" />
        </mxCell>
        <mxCell id="IYxswr12Z-hXtfokX92H-5" value="&lt;b&gt;operand&lt;/b&gt;" style="shape=ext;double=1;rounded=1;whiteSpace=wrap;html=1;strokeColor=#666666;fillColor=#f5f5f5;fontColor=#333333;" vertex="1" parent="1">
          <mxGeometry x="110" y="520" width="70" height="40" as="geometry" />
        </mxCell>
        <mxCell id="IYxswr12Z-hXtfokX92H-6" value="&lt;b&gt;operator&lt;/b&gt;" style="shape=ext;double=1;rounded=1;whiteSpace=wrap;html=1;strokeColor=#666666;fillColor=#f5f5f5;fontColor=#333333;" vertex="1" parent="1">
          <mxGeometry x="110" y="440" width="70" height="40" as="geometry" />
        </mxCell>
        <mxCell id="IYxswr12Z-hXtfokX92H-7" value="" style="rounded=0;whiteSpace=wrap;html=1;strokeColor=#CC0066;fillColor=none;strokeWidth=2;" vertex="1" parent="1">
          <mxGeometry x="290" y="525" width="70" height="30" as="geometry" />
        </mxCell>
        <mxCell id="IYxswr12Z-hXtfokX92H-8" value="" style="rounded=0;whiteSpace=wrap;html=1;strokeColor=#FFB570;fillColor=none;strokeWidth=2;" vertex="1" parent="1">
          <mxGeometry x="360" y="525" width="120" height="30" as="geometry" />
        </mxCell>
        <mxCell id="IYxswr12Z-hXtfokX92H-10" value="" style="endArrow=classic;html=1;rounded=0;strokeColor=#FFB570;strokeWidth=3;" edge="1" parent="1">
          <mxGeometry width="50" height="50" relative="1" as="geometry">
            <mxPoint x="430" y="525" as="sourcePoint" />
            <mxPoint x="430" y="455" as="targetPoint" />
          </mxGeometry>
        </mxCell>
        <mxCell id="IYxswr12Z-hXtfokX92H-14" value="&lt;b&gt;semantic component&lt;/b&gt;" style="shape=ext;double=1;rounded=1;whiteSpace=wrap;html=1;strokeColor=#666666;fillColor=#f5f5f5;fontColor=#333333;" vertex="1" parent="1">
          <mxGeometry x="579.46" y="515" width="120.54" height="40" as="geometry" />
        </mxCell>
      </root>
    </mxGraphModel>
  </diagram>
</mxfile>
